<svg xmlns="http://www.w3.org/2000/svg" width="800" height="800" viewBox="0 0 800 800" fill="none"><path d="M402.667 293.333C450.667 293.333 490.667 328 496 373.333C501.333 418.667 461.333 453.333 405.333 453.333C349.333 453.333 309.333 418.667 312 373.333C314.667 328 354.667 293.333 402.667 293.333ZM525.333 240L576 536C568 533.333 560 533.333 546.667 533.333C506.667 536 474.667 562.667 472 592C472 600 472 608 474.667 613.333H346.667C349.333 608 349.333 600 349.333 592C344 562.667 312 536 272 533.333C261.333 533.333 250.667 533.333 242.667 533.333L280 240H213.333L144 613.333C136 658.667 144 693.333 210.667 693.333H616C682.667 693.333 688 658.667 677.333 613.333L586.667 240H525.333ZM693.333 106.667H106.667C90.6667 106.667 80 117.333 80 133.333V266.667C80 282.667 90.6667 293.333 106.667 293.333H146.667L170.667 186.667H626.667L658.667 293.333H693.333C709.333 293.333 720 282.667 720 266.667V133.333C720 117.333 709.333 106.667 693.333 106.667Z" fill="white"></path></svg>