<svg xmlns="http://www.w3.org/2000/svg" width="800" height="800" viewBox="0 0 800 800" fill="none"><path d="M709.333 344L632 336C626.667 317.333 618.667 298.667 610.667 282.667L658.667 221.333C664 216 661.333 208 658.667 202.667L600 144C594.667 138.667 586.667 138.667 581.333 144L520 192C504 181.333 485.333 176 466.667 170.667L458.667 93.3333C453.333 85.3333 448 80 442.667 80H360C352 80 346.667 85.3333 346.667 90.6667L338.667 168C320 173.333 301.333 181.333 285.333 189.333L221.333 144C216 138.667 208 141.333 202.667 144L144 202.667C138.667 208 138.667 216 144 221.333L192 282.667C181.333 298.667 176 317.333 170.667 336L93.3333 344C85.3333 346.667 80 352 80 357.333V440C80 448 85.3333 453.333 90.6667 453.333L168 461.333C173.333 480 181.333 498.667 189.333 514.667L141.333 576C136 581.333 138.667 589.333 141.333 594.667L200 653.333C205.333 658.667 213.333 658.667 218.667 653.333L280 605.333C296 616 314.667 621.333 333.333 626.667L341.333 704C341.333 712 346.667 714.667 354.667 714.667H437.333C445.333 714.667 450.667 709.333 450.667 704L458.667 626.667C477.333 621.333 496 613.333 512 605.333L573.333 653.333C578.667 658.667 586.667 656 592 653.333L650.667 594.667C656 589.333 656 581.333 650.667 576L602.667 514.667C613.333 498.667 618.667 480 624 461.333L701.333 453.333C709.333 453.333 712 448 712 440V357.333C720 352 714.667 346.667 709.333 344ZM400 506.667C341.333 506.667 293.333 458.667 293.333 400C293.333 341.333 341.333 293.333 400 293.333C458.667 293.333 506.667 341.333 506.667 400C506.667 458.667 458.667 506.667 400 506.667Z" fill="white"></path></svg>